<?xml version="1.0"?>
<svg xmlns:rdf="http://www.w3.org/1999/02/22-rdf-syntax-ns#" xmlns="http://www.w3.org/2000/svg" xmlns:cc="http://creativecommons.org/ns#" xmlns:dc="http://purl.org/dc/elements/1.1/" xmlns:svg="http://www.w3.org/2000/svg" id="svg2" viewBox="0 0 386.54 295.75" version="1.1">
  <g id="layer1" transform="translate(-92.826 -621.76)">
    <path id="path2888" d="m214.34 906.3c-13.47-3.3288-18.736-10.682-23.831-33.279-4.9056-21.757-7.6136-29.233-13.484-37.231-4.7146-6.4225-10.83-9.2966-19.78-9.2966-11.122 0-16.917-4.2111-20.715-15.054-4.069-11.616-4.8278-32.526-1.5178-41.821 2.1337-5.992 7.6482-12.822 13.595-16.839 2.9749-2.0094 13.545-6.694 25.174-11.157 22.236-8.534 37.21-15.681 52.095-24.865 19.287-11.9 41.292-28.601 54.969-41.718 8.7283-8.3708 9.0989-8.9126 10.945-16.001 1.7877-6.8635 4.2372-11.389 8.2524-15.246 2.9642-2.8474 4.0376-3.2632 9.2849-3.5974 9.8038-0.62426 15.943 3.4574 24.465 16.265 12.188 18.318 24.481 53.523 30.071 86.12 8.3529 48.712 2.1163 96.605-13.425 103.1-5.972 2.4953-9.1324 1.5794-20.986-6.0816-3.1072-2.0083-8.5055-4.7428-11.996-6.0767-19.961-7.6275-66.793-15.383-93.041-15.408-9.7335-0.009-10.534 0.12957-11.888 2.0622-2.2909 3.2708-1.7919 10.571 1.3273 19.417 1.5283 4.3342 2.787 8.8452 2.7971 10.025 0.0235 2.7439 2.054 6.6676 4.6803 9.0444 3.339 3.0218 4.8956 6.8532 4.2286 10.409-0.52332 2.7895-0.0662 3.897 3.647 8.8367 4.5637 6.0711 5.1181 8.6811 2.9678 13.973-1.4042 3.4559-1.1642 4.839 1.4167 8.1648 2.4232 3.1227 2.1778 5.5758-0.66612 6.6571-3.2179 1.2234-12.854 1.0154-18.587-0.40137zm96.98-94.025c-18.655-37.286-29.59-94.79-24.128-126.88l0.60837-3.5746-7.3901 7.3901c-10.297 10.297-19.176 16.623-45.696 32.555-33.522 20.138-38.725 25.852-39.332 43.193-0.68921 19.666 6.9639 35.721 19.81 41.557 4.134 1.8782 7.135 2.2766 23.39 3.1046 10.256 0.52245 23.468 1.6265 29.36 2.4534 12.744 1.7885 32.237 6.7075 41.966 10.59 3.846 1.5347 7.2327 2.8149 7.526 2.8449 0.29325 0.03-2.4581-5.9243-6.1141-13.232zm6.5078-14.219c2.2188-10.762 2.8218-25.876 1.44-36.091-2.6343-19.474-11.415-38.573-21.148-45.996l-3.4051-2.5972 0.64541 5.9798c1.3421 12.434 5.4353 37.215 8.1491 49.335 3.2874 14.682 10.982 38.69 12.047 37.588 0.40335-0.41753 1.4254-4.1157 2.2712-8.2182zm116.28 32.4c4.6799-11.599 8.6059-26.788 10.569-40.89 2.3853-17.134 1.5142-49.591-1.7935-66.823-7.7083-40.161-24.841-71.108-47.596-85.978-3.9159-2.5588-6.6941-4.7942-6.1739-4.9676 1.4253-0.47511 10.769 3.2247 19.157 7.5855 26.43 13.74 43.764 36.426 52.492 68.699 2.2554 8.3391 2.3991 10.195 2.4566 31.701 0.0551 20.592-0.15494 23.854-2.1313 33.099-2.9835 13.957-7.7028 27.824-13.645 40.092-4.981 10.284-14.97 26.573-16.296 26.573-0.38917 0 0.94295-4.0908 2.9603-9.0906zm-27.603-12.587c14.424-35.723 12.513-84.754-4.7381-121.56-7.1509-15.255-15.757-25.907-26.915-33.313-2.9705-1.9717-5.228-3.7578-5.0167-3.9691 0.70687-0.70686 8.306 2.3966 16.81 6.8651 14.676 7.7119 27.257 21.185 35.1 37.591 6.0834 12.725 7.6857 20.314 8.2014 38.845 0.6696 24.062-2.8399 41.451-12.376 61.319-4.2862 8.9302-12.256 21.911-13.452 21.911-0.3954 0 0.67871-3.4614 2.3869-7.6921zm-277.64 5.8058c-18.84-3.1793-26.042-10.782-26.042-27.492 0-9.5952 1.0865-13.872 5.0009-19.683 2.6192-3.8884 4.6791-5.3761 15.605-11.27 12.837-6.9249 16.532-8.311 13.776-5.1685-4.829 5.5075-7.2276 14.713-7.2276 27.738 0 15.023 2.8712 24.047 10.357 32.551l3.7651 4.2774-5.4404-0.10967c-2.9922-0.0603-7.3994-0.44025-9.7938-0.84429zm-0.2748-9.0691c-4.0554-10.47-5.4732-17.974-5.5489-29.369-0.0775-11.652-0.92331-14.376-2.6597-8.5642-0.44967 1.505-0.85912 6.9321-0.90989 12.06-0.0807 8.1433 0.2876 10.475 2.9084 18.414 2.5041 7.5863 3.3185 9.0906 4.9214 9.0906 1.4484 0 1.7653-0.4012 1.2887-1.6316zm-12.814-8.8576c-2.5354-7.8297-2.7556-9.4969-2.3893-18.092 0.33548-7.8715 0.18217-9.3824-0.90951-8.9635-2.1448 0.82304-3.0362 4.5702-3.0128 12.664 0.017 5.8589 0.5354 8.8795 2.232 13.005 5.1212 12.453 7.9778 13.424 4.0796 1.3859zm264.69 4.6619c5.2148-12.804 7.0117-22.377 7.5125-40.025 0.36481-12.855 0.11963-18.601-1.114-26.106-1.945-11.834-6.7355-26.546-11.836-36.349-4.2436-8.1568-14.393-19.784-19.819-22.707-1.8446-0.9934-3.3539-2.1586-3.3539-2.5894 0-2.2336 15.784 5.5468 22.927 11.301 15.351 12.367 24.091 30.649 25.261 52.841 0.9291 17.617-2.3074 34.421-9.6079 49.882-4.26 9.0221-10.563 19.557-11.709 19.572-0.34868 0.005 0.43406-2.6141 1.7394-5.8192z"/>
  </g>
  <metadata>
    <rdf:RDF>
      <cc:Work>
        <dc:format>image/svg+xml</dc:format>
        <dc:type rdf:resource="http://purl.org/dc/dcmitype/StillImage"/>
        <cc:license rdf:resource="http://creativecommons.org/licenses/publicdomain/"/>
        <dc:publisher>
          <cc:Agent rdf:about="http://openclipart.org/">
            <dc:title>Openclipart</dc:title>
          </cc:Agent>
        </dc:publisher>
        <dc:title>megaphone</dc:title>
        <dc:date>2011-07-20T15:37:13</dc:date>
        <dc:description>clip art, clipart, demo, demonstration, megaphone, politics, protests, revolution, speech, unite, worker, </dc:description>
        <dc:source>http://openclipart.org/detail/150721/megaphone-by-worker-150721</dc:source>
        <dc:creator>
          <cc:Agent>
            <dc:title>worker</dc:title>
          </cc:Agent>
        </dc:creator>
        <dc:subject>
          <rdf:Bag>
            <rdf:li>clip art</rdf:li>
            <rdf:li>clipart</rdf:li>
            <rdf:li>demo</rdf:li>
            <rdf:li>demonstration</rdf:li>
            <rdf:li>megaphone</rdf:li>
            <rdf:li>politics</rdf:li>
            <rdf:li>protests</rdf:li>
            <rdf:li>revolution</rdf:li>
            <rdf:li>speech</rdf:li>
            <rdf:li>unite</rdf:li>
            <rdf:li>worker</rdf:li>
          </rdf:Bag>
        </dc:subject>
      </cc:Work>
      <cc:License rdf:about="http://creativecommons.org/licenses/publicdomain/">
        <cc:permits rdf:resource="http://creativecommons.org/ns#Reproduction"/>
        <cc:permits rdf:resource="http://creativecommons.org/ns#Distribution"/>
        <cc:permits rdf:resource="http://creativecommons.org/ns#DerivativeWorks"/>
      </cc:License>
    </rdf:RDF>
  </metadata>
</svg>
